<svg xmlns="http://www.w3.org/2000/svg">

  <!-- Логотип -->
  <symbol id="logo" viewBox="0 0 111 17" fill="none">
      <path fill="currentColor" fill-rule="evenodd" d="M17.968 12.58h-5.3l-1.4 3.42h-2.3L15.408.84h.14L21.988 16h-2.68l-1.34-3.42Zm-.78-2-1.82-4.6-1.88 4.6h3.7ZM8.84 1.44v2.24H0V1.44h8.84ZM0 7.78V16h2.34v-6H8V7.78H0Zm28.773-4.36c.973 0 2.086.327 3.34.98l.88-1.78a7.841 7.841 0 0 0-2.04-.92c-.72-.227-1.56-.34-2.52-.34-1.32.053-2.387.447-3.2 1.18-.8.72-1.2 1.673-1.2 2.86 0 .813.193 1.493.58 2.04.4.533.873.953 1.42 1.26.546.293 1.233.593 2.06.9.8.307 1.42.646 1.86 1.02.453.373.68.84.68 1.4 0 .707-.267 1.233-.8 1.58-.534.333-1.154.5-1.86.5-.574 0-1.2-.12-1.88-.36a6.958 6.958 0 0 1-1.74-.94l-1.04 1.82c.666.48 1.426.86 2.28 1.14.853.266 1.72.4 2.6.4 1 0 1.866-.187 2.6-.56.733-.373 1.293-.873 1.68-1.5a3.92 3.92 0 0 0 .58-2.1c0-.854-.167-1.56-.5-2.12-.334-.56-.76-1-1.28-1.32-.507-.333-1.12-.627-1.84-.88-.947-.36-1.687-.72-2.22-1.08-.52-.373-.78-.833-.78-1.38 0-.56.206-1 .62-1.32.426-.32 1-.48 1.72-.48ZM47.953 16h-2.34V9.8h-7.16V16h-2.34V1.44h2.34v6.14h7.16V1.44h2.34V16Zm6.34 0V1.44h-2.34V16h2.34Zm3.108-7.26c0-1.333.333-2.567 1-3.7a7.597 7.597 0 0 1 2.7-2.74 7.201 7.201 0 0 1 3.74-1.02c1.333 0 2.566.34 3.7 1.02a7.708 7.708 0 0 1 2.74 2.74 7.13 7.13 0 0 1 1.02 3.7c0 1.346-.34 2.586-1.02 3.72a7.44 7.44 0 0 1-2.72 2.7 7.274 7.274 0 0 1-3.72 1 7.425 7.425 0 0 1-3.74-.98 7.486 7.486 0 0 1-2.7-2.7c-.667-1.133-1-2.38-1-3.74Zm2.4 0c0 .947.226 1.813.68 2.6a5.18 5.18 0 0 0 1.84 1.88c.786.466 1.646.7 2.58.7.92 0 1.76-.227 2.52-.68a5.075 5.075 0 0 0 1.8-1.88c.453-.8.68-1.673.68-2.62 0-.947-.227-1.82-.68-2.62a5.137 5.137 0 0 0-1.84-1.9 4.825 4.825 0 0 0-2.54-.7 4.86 4.86 0 0 0-2.56.7 5.189 5.189 0 0 0-1.82 1.9c-.44.8-.66 1.673-.66 2.62Zm17.91-2.4L87.5 16h9.94v-2.24h-7.6V9.8h6.52V7.56h-6.52V3.68h7.32V1.44H87.5v11.276C83.562 8.714 79.632 4.791 75.53.94h-.12V16h2.36l-.06-9.66Zm32.613-2.66V1.44h-9.66V16h9.94v-2.24h-7.6V9.8h6.52V7.56h-6.52V3.68h7.32Z" clip-rule="evenodd"/>
  </symbol>

  <!-- Гамбургер -->
  <symbol id="burger" viewBox="0 0 22 14" fill="none"><path fill="currentColor" d="M0 12h22v2H0zM0 6h22v2H0zM0 0h22v2H0z"/></symbol>

  <!-- Лупа -->
  <symbol id="search" viewBox="0 0 18 18" fill="none"><g clip-path="url(#a)"><path fill="currentColor" d="M7.42 14.825C3.331 14.825.006 11.5.006 7.412.007 3.325 3.332 0 7.419 0s7.412 3.325 7.412 7.412-3.325 7.413-7.412 7.413Zm0-13.42a6.014 6.014 0 0 0-6.008 6.007 6.014 6.014 0 0 0 6.007 6.007 6.014 6.014 0 0 0 6.007-6.007A6.014 6.014 0 0 0 7.42 1.405Zm10.367 16.39a.703.703 0 0 0 0-.994l-3.144-3.144a.703.703 0 1 0-.993.993l3.144 3.144a.7.7 0 0 0 .993 0Z"/></g><defs><clipPath id="a"><path fill="#fff" d="M0 0h18v18H0z"/></clipPath></defs></symbol>

  <!-- Человечек -->
  <symbol id="account" viewBox="0 0 20 18" fill="none"><path fill="currentColor" fill-rule="evenodd" d="M3.78 12.946a4.083 4.083 0 0 1 2.887-1.196h6.667a4.083 4.083 0 0 1 4.083 4.083V17.5a.75.75 0 0 1-1.5 0v-1.667a2.583 2.583 0 0 0-2.583-2.583H6.667a2.584 2.584 0 0 0-2.583 2.583V17.5a.75.75 0 0 1-1.5 0v-1.667c0-1.083.43-2.121 1.195-2.887ZM10 3.25a2.583 2.583 0 1 0 0 5.167 2.583 2.583 0 0 0 0-5.167ZM5.917 5.833a4.083 4.083 0 1 1 8.166 0 4.083 4.083 0 0 1-8.167 0Z" clip-rule="evenodd"/></symbol>

  <!-- Избранное -->
  <symbol id="favorites" viewBox="0 0 19 18" fill="none"><path fill="currentColor" fill-rule="evenodd" d="M11.543.406a5.333 5.333 0 0 1 7.376 4.929 5.333 5.333 0 0 1-1.563 3.772L9.99 16.474a.75.75 0 0 1-1.06 0L1.561 9.107a5.334 5.334 0 1 1 7.544-7.544l.353.353.353-.353a5.333 5.333 0 0 1 1.73-1.157ZM13.584 1.5a3.834 3.834 0 0 0-2.71 1.123l-.884.884a.75.75 0 0 1-1.06 0l-.884-.883a3.834 3.834 0 0 0-5.423 5.422l6.836 6.837 6.837-6.837a3.835 3.835 0 0 0 0-5.422A3.833 3.833 0 0 0 13.584 1.5Z" clip-rule="evenodd"/><path fill="var(--favorites-heart-color)" d="M5.936 11.339C3.423 8.823 2.374 7.759 2.28 7.632a3.866 3.866 0 0 1-.756-2.018c-.085-.992.274-2.045.96-2.822A3.919 3.919 0 0 1 4.57 1.59c1.077-.22 2.179.032 3.084.706.086.065.43.386.763.715.422.416.636.612.702.643.15.072.31.097.454.071.246-.043.286-.074.956-.735.628-.618.784-.75 1.144-.964a3.887 3.887 0 0 1 2.189-.504c.976.085 1.794.469 2.46 1.156.331.34.575.698.752 1.102a3.807 3.807 0 0 1-.655 4.113 461.53 461.53 0 0 1-3.572 3.591l-3.384 3.382Z"/></symbol>

  <!-- Конвертик -->
  <symbol id="send" fill="none" viewBox="0 0 24 24"><path stroke="currentColor" stroke-linecap="round" stroke-linejoin="round" stroke-width="1.5" d="M22 2 11 13M22 2l-7 20-4-9-9-4 20-7Z"/></symbol>

  <!-- Стрелка -->
  <symbol id="arrow" fill="none" viewBox="0 0 51 12"><path fill="currentColor" d="M.47 6.53a.75.75 0 0 1 0-1.06L5.243.697a.75.75 0 1 1 1.06 1.06L2.061 6l4.242 4.243a.75.75 0 0 1-1.06 1.06L.47 6.53ZM51 6.75H1v-1.5h50v1.5Z"/></symbol>

  <!-- Чекбокс -->
  <symbol id="checkbox" fill="none" viewBox="0 0 15 16"><path stroke="currentColor" d="M.5 1h14v14H.5z" opacity=".2"/></symbol>
  <symbol id="checkbox-mark" fill="none" viewBox="0 0 10 8"><path fill="currentColor" d="M0 4.57 3.424 8 10 1.431 9.056.5 3.424 6.125.931 3.632 0 4.569Z"/></symbol>
</svg>